<?xml version="1.0" encoding="iso-8859-1"?>
<!-- Generator: Adobe Illustrator 19.0.0, SVG Export Plug-In . SVG Version: 6.00 Build 0)  -->
<svg version="1.1" id="Capa_1" xmlns="http://www.w3.org/2000/svg" xmlns:xlink="http://www.w3.org/1999/xlink" x="0px" y="0px"
	 viewBox="0 0 512 512" style="enable-background:new 0 0 512 512;" xml:space="preserve">
<path style="fill:#FB8276;" d="M463.679,226.755h-29.266c-9.199,3.878-18.996,5.928-29.03,5.928c-10.035,0-19.832-2.05-29.031-5.928
	h-21.905c2.561,3.491,4.094,7.785,4.094,12.442c0,11.609-9.412,21.054-20.981,21.054h-5.728c-0.437,0-0.822,0.283-0.953,0.699
	c-5.56,17.588-16.063,32.572-29.368,43.311v13.105h9.71c24.58,0,44.577,20.069,44.577,44.737v24.199h148.161
	c2.93,0,5.299-2.38,5.299-5.317V272.492C509.256,247.272,488.81,226.755,463.679,226.755z"/>
<path style="fill:#FFB98A;" d="M405.383,232.683c-12.521,0-24.678-3.171-35.754-9.142l31.095,61.362
	c2.562,5.059,6.757,5.059,9.319,0l31.094-61.363C430.06,229.511,417.904,232.683,405.383,232.683z"/>
<path style="opacity:0.1;enable-background:new    ;" d="M369.629,223.541l31.095,61.362c2.562,5.059,6.757,5.059,9.319,0l6.03-11.9
	l-20.795-41.038C386.34,230.735,377.697,227.89,369.629,223.541z"/>
<path style="fill:#FFB98A;" d="M490.018,127.733h-2.475v16.776c0,9.241-1.52,18.483-4.355,27.333h6.83
	c12.141,0,21.982-9.871,21.982-22.054C512,137.608,502.158,127.733,490.018,127.733z"/>
<path style="fill:#FFD5B3;" d="M405.383,36.083c-45.932,0-83.162,32.272-83.162,79.219v10.166
	c10.165,14.259,17.068,31.743,19.271,51.045c0.049,0.434,0.376,0.787,0.806,0.869c6.813,1.302,11.757,7.276,11.757,14.204v6.55
	c0,4.418-1.994,8.374-5.122,11.031c14.828,15.005,34.658,24.516,56.451,24.516c45.928,0,83.16-42.227,83.16-89.174v-29.207
	C488.543,68.355,451.31,36.083,405.383,36.083z"/>
<path style="fill:#F7931E;" d="M405.383,36.083c-45.932,0-83.162,32.272-83.162,79.219v10.166c0.41,0.575,0.811,1.158,1.21,1.744
	h54.641c24.907,0,46.258-15.258,55.293-36.966c9.021,21.675,30.321,36.917,55.179,36.964v-11.907
	C488.543,68.355,451.31,36.083,405.383,36.083z"/>
<g>
	<path style="fill:#775436;" d="M411.276,179.177h-4.991c-6.888,0-12.491-5.678-12.491-12.656v-15.879c0-4.142,3.357-7.5,7.5-7.5
		s7.5,3.358,7.5,7.5v13.535h2.482c4.143,0,7.5,3.358,7.5,7.5C418.776,175.819,415.419,179.177,411.276,179.177z"/>
	<path style="fill:#775436;" d="M363.765,167.745c-4.142,0-7.5-3.358-7.5-7.5v-10.326c0-4.142,3.358-7.5,7.5-7.5
		c4.143,0,7.5,3.358,7.5,7.5v10.326C371.265,164.387,367.907,167.745,363.765,167.745z"/>
	<path style="fill:#775436;" d="M444.244,167.745c-4.143,0-7.5-3.358-7.5-7.5v-10.326c0-4.142,3.357-7.5,7.5-7.5s7.5,3.358,7.5,7.5
		v10.326C451.744,164.387,448.387,167.745,444.244,167.745z"/>
	<path style="fill:#775436;" d="M405.383,219.979c-15.443,0-28.007-12.596-28.007-28.079c0-4.142,3.357-7.5,7.5-7.5
		s7.5,3.358,7.5,7.5c0,7.212,5.835,13.079,13.007,13.079c7.173,0,13.008-5.867,13.008-13.079c0-4.142,3.357-7.5,7.5-7.5
		s7.5,3.358,7.5,7.5C433.391,207.383,420.826,219.979,405.383,219.979z"/>
</g>
<path style="fill:#FFFFFF;" d="M448.935,347.206c-1.608,0-2.921-1.313-2.921-2.928v-17.909h-17.857
	c-1.612,0-2.919-1.314-2.919-2.928v-15.156c0-1.614,1.307-2.926,2.919-2.926h17.857v-17.91c0-1.614,1.313-2.927,2.921-2.927h15.113
	c1.61,0,2.918,1.313,2.918,2.927v17.911h17.86c1.61,0,2.919,1.312,2.919,2.926v15.156c0,1.615-1.309,2.928-2.919,2.928h-17.86
	v17.909c0,1.615-1.308,2.928-2.918,2.928h-15.113V347.206z"/>
<path style="fill:#FCDB67;" d="M132.347,379.264c4.074-4.068,9.492-6.309,15.255-6.309c0.825,0,1.64,0.059,2.447,0.149v-11
	c0-24.668,19.998-44.737,44.578-44.737h15.863v-8.562c-16.213-10.838-29.131-27.633-35.523-47.855
	c-0.131-0.416-0.517-0.699-0.953-0.699h-5.734c-11.564,0-20.974-9.445-20.974-21.054c0-4.657,1.532-8.952,4.093-12.442h-15.751
	c-9.199,3.878-18.996,5.928-29.03,5.928c-10.035,0-19.832-2.05-29.031-5.928H48.321c-25.132,0-45.578,20.518-45.578,45.737v108.493
	c0,2.937,2.371,5.317,5.3,5.317h119.603C128.715,383.7,130.297,381.311,132.347,379.264z"/>
<g style="opacity:0.1;">
	<path d="M24.209,380.985V272.492c0-25.22,20.446-45.737,45.578-45.737H48.321c-25.132,0-45.578,20.518-45.578,45.737v108.493
		c0,2.937,2.371,5.317,5.3,5.317h21.466C26.58,386.303,24.209,383.922,24.209,380.985z"/>
</g>
<path style="fill:#FFB98A;" d="M106.617,232.683c-12.521,0-24.678-3.171-35.753-9.143l31.095,61.362
	c2.563,5.059,6.758,5.059,9.319,0l31.093-61.363C131.295,229.511,119.139,232.683,106.617,232.683z"/>
<path style="opacity:0.1;enable-background:new    ;" d="M70.864,223.54l31.095,61.362c2.563,5.059,6.758,5.059,9.319,0
	l6.036-11.912l-20.788-41.024C87.582,230.737,78.936,227.892,70.864,223.54z"/>
<path style="fill:#FFB98A;" d="M24.455,144.509v-16.776h-2.481C9.838,127.733,0,137.608,0,149.788
	c0,12.183,9.838,22.054,21.974,22.054h6.837C25.975,162.992,24.455,153.75,24.455,144.509z"/>
<path style="fill:#FFD5B3;" d="M151.792,198.136v-6.55c0-6.928,4.944-12.902,11.756-14.204c0.43-0.083,0.757-0.435,0.806-0.869
	c2.621-22.976,11.904-43.371,25.425-58.817v-2.394c0-46.946-37.233-79.219-83.161-79.219c-45.931,0-83.162,32.272-83.162,79.219
	v29.207c0,46.946,37.231,89.174,83.162,89.174c20.645,0,39.53-8.536,54.069-22.193C155.469,209.304,151.792,204.143,151.792,198.136
	z"/>
<g style="opacity:0.1;">
	<path d="M44.813,144.509v-29.207c0-43.245,31.6-74.016,72.483-78.603c-3.498-0.393-7.058-0.616-10.679-0.616
		c-45.931,0-83.162,32.272-83.162,79.219v29.207c0,46.946,37.231,89.174,83.162,89.174c3.618,0,7.183-0.263,10.679-0.769
		C76.409,226.999,44.813,187.757,44.813,144.509z"/>
</g>
<g>
	<path style="fill:#775436;" d="M112.512,164.947h-4.991c-6.889,0-12.492-5.678-12.492-12.656v-15.879c0-4.142,3.357-7.5,7.5-7.5
		s7.5,3.358,7.5,7.5v13.535h2.483c4.143,0,7.5,3.358,7.5,7.5C120.012,161.589,116.654,164.947,112.512,164.947z"/>
	<path style="fill:#775436;" d="M65,153.516c-4.143,0-7.5-3.358-7.5-7.5v-10.325c0-4.142,3.357-7.5,7.5-7.5s7.5,3.358,7.5,7.5
		v10.325C72.5,150.158,69.143,153.516,65,153.516z"/>
	<path style="fill:#775436;" d="M145.479,153.516c-4.143,0-7.5-3.358-7.5-7.5v-10.325c0-4.142,3.357-7.5,7.5-7.5s7.5,3.358,7.5,7.5
		v10.325C152.979,150.158,149.621,153.516,145.479,153.516z"/>
	<path style="fill:#775436;" d="M106.617,205.75c-15.443,0-28.007-12.596-28.007-28.079c0-4.142,3.357-7.5,7.5-7.5
		s7.5,3.358,7.5,7.5c0,7.212,5.835,13.079,13.007,13.079c7.173,0,13.008-5.867,13.008-13.079c0-4.142,3.357-7.5,7.5-7.5
		s7.5,3.358,7.5,7.5C134.625,193.153,122.061,205.75,106.617,205.75z"/>
</g>
<path style="fill:#FFFFFF;" d="M50.487,349.418c-1.61,0-2.922-1.313-2.922-2.927v-17.909H29.708c-1.611,0-2.918-1.314-2.918-2.927
	v-15.157c0-1.613,1.307-2.925,2.918-2.925h17.857v-17.911c0-1.614,1.312-2.928,2.922-2.928H65.6c1.609,0,2.917,1.313,2.917,2.928
	v17.911h17.86c1.611,0,2.919,1.312,2.919,2.925v15.157c0,1.614-1.308,2.927-2.919,2.927h-17.86v17.909
	c0,1.615-1.308,2.927-2.917,2.927H50.487z"/>
<path style="fill:#48C1E1;" d="M311.219,316.367H281.48c-9.062,3.749-18.695,5.725-28.557,5.725s-19.496-1.977-28.558-5.725h-29.739
	c-25.132,0-45.578,20.517-45.578,45.737v10.922c5.217,0.344,10.077,2.513,13.807,6.238l6.737,6.726
	c0.194,0.195,0.45,0.293,0.706,0.293s0.511-0.097,0.706-0.292l6.739-6.726c4.071-4.069,9.488-6.309,15.252-6.309
	c5.764,0,11.182,2.24,15.255,6.309c4.074,4.067,6.317,9.475,6.317,15.229s-2.244,11.163-6.318,15.231l-35.586,35.271
	c-0.667,0.664-1.553,1.028-2.495,1.028c-0.947,0-1.838-0.368-2.508-1.036l-18.612-18.585v44.195c0,2.937,2.372,5.318,5.301,5.318
	h197.148c2.93,0,5.299-2.381,5.299-5.318V362.104C356.796,336.884,336.35,316.367,311.219,316.367z"/>
<g style="opacity:0.1;">
	<path d="M162.855,379.264l6.737,6.726c0.194,0.195,0.45,0.293,0.706,0.293c0.066,0,0.131-0.025,0.196-0.038v-24.14
		c0-25.22,20.445-45.737,45.577-45.737h-21.445c-25.132,0-45.578,20.517-45.578,45.737v10.922
		C154.266,373.37,159.126,375.539,162.855,379.264z"/>
	<path d="M170.495,470.597v-24.606c-0.108,0.01-0.216,0.032-0.326,0.032c-0.947,0-1.838-0.368-2.508-1.036l-18.612-18.585v44.195
		c0,2.937,2.372,5.318,5.301,5.318h21.445C172.866,475.915,170.495,473.534,170.495,470.597z"/>
</g>
<path style="fill:#FB8276;" d="M170.169,447.023c-1.213,0-2.355-0.472-3.214-1.328l-35.315-35.263
	c-4.257-4.252-6.602-9.913-6.602-15.938c0-6.024,2.345-11.685,6.602-15.937c4.264-4.257,9.932-6.601,15.962-6.601
	c6.029,0,11.698,2.344,15.961,6.601l6.736,6.726l6.739-6.726c4.26-4.257,9.93-6.601,15.958-6.601c6.03,0,11.699,2.344,15.962,6.601
	c4.264,4.256,6.61,9.917,6.61,15.937c0,6.021-2.347,11.68-6.612,15.938l-35.588,35.273
	C172.514,446.555,171.376,447.023,170.169,447.023z"/>
<g style="opacity:0.1;">
	<path d="M152.498,410.432c-4.258-4.252-6.602-9.913-6.602-15.938c0-6.024,2.344-11.685,6.602-15.937
		c1.652-1.649,3.52-3.003,5.532-4.053c-3.183-1.66-6.735-2.548-10.429-2.548c-6.03,0-11.698,2.344-15.962,6.601
		c-4.257,4.252-6.602,9.913-6.602,15.937c0,6.026,2.345,11.687,6.602,15.938l35.315,35.263c0.858,0.856,2.001,1.328,3.214,1.328
		c1.207,0,2.345-0.468,3.199-1.318l7.255-7.19L152.498,410.432z"/>
</g>
<g>
	<path style="fill:#FFB98A;" d="M170.761,233.918v-16.776h-2.481c-12.136,0-21.974,9.876-21.974,22.055
		c0,12.182,9.838,22.054,21.974,22.054h6.836C172.28,252.401,170.761,243.16,170.761,233.918z"/>
	<path style="fill:#FFB98A;" d="M337.559,217.142h-2.475v16.776c0,9.241-1.52,18.483-4.356,27.333h6.83
		c12.14,0,21.981-9.872,21.981-22.054C359.54,227.018,349.698,217.142,337.559,217.142z"/>
	<path style="fill:#FFB98A;" d="M252.924,322.092c-12.521,0-24.679-3.171-35.755-9.143l31.095,61.363
		c2.563,5.059,6.757,5.059,9.32,0l31.092-61.362C277.601,318.921,265.444,322.092,252.924,322.092z"/>
</g>
<path style="opacity:0.1;enable-background:new    ;" d="M217.169,312.949l31.095,61.363c2.563,5.059,6.757,5.059,9.32,0
	l6.025-11.893l-20.8-41.046C233.873,320.143,225.234,317.297,217.169,312.949z"/>
<path style="fill:#D5E962;" d="M230.802,90.982c7.079-2.036,14.489-3.124,22.122-3.124c7.633,0,15.041,1.087,22.12,3.123
	c6.915-6.889,11.286-16.938,11.286-28.12c0-2.338-1.889-4.232-4.216-4.232H223.73c-2.329,0-4.217,1.894-4.217,4.232
	C219.514,74.043,223.885,84.093,230.802,90.982z"/>
<path style="opacity:0.1;enable-background:new    ;" d="M230.802,90.982c5.949-1.711,12.133-2.748,18.486-3.035
	c-5.331-6.656-8.595-15.442-8.595-25.085c0-2.338,1.887-4.232,4.216-4.232H223.73c-2.329,0-4.217,1.894-4.217,4.232
	C219.514,74.043,223.885,84.093,230.802,90.982z"/>
<path style="fill:#FFD5B3;" d="M169.761,212.486v21.432c0,46.946,37.232,89.174,83.163,89.174c45.928,0,83.16-42.228,83.16-89.174
	v-21.432H169.761z"/>
<g style="opacity:0.1;">
	<path d="M191.099,233.918v-21.432h-21.338v21.432c0,46.946,37.232,89.174,83.163,89.174c3.614,0,7.175-0.263,10.668-0.768
		C222.7,316.415,191.099,277.17,191.099,233.918z"/>
</g>
<g>
	<path style="fill:#775436;" d="M210.299,250.762C210.298,250.762,210.298,250.762,210.299,250.762
		c-7.619,0-14.783-2.979-20.172-8.389c-2.924-2.934-2.915-7.683,0.018-10.606c2.934-2.923,7.683-2.915,10.607,0.02
		c2.555,2.564,5.945,3.976,9.546,3.976c3.602,0,6.992-1.412,9.548-3.976c2.923-2.934,7.672-2.943,10.606-0.019
		c2.935,2.924,2.942,7.672,0.019,10.606C225.081,247.783,217.916,250.762,210.299,250.762z"/>
	<path style="fill:#775436;" d="M290.381,250.762C290.38,250.762,290.38,250.762,290.381,250.762
		c-7.619,0-14.782-2.979-20.171-8.389c-2.924-2.934-2.915-7.683,0.018-10.606c2.935-2.923,7.684-2.915,10.607,0.02
		c2.555,2.564,5.944,3.975,9.545,3.976c0.001,0,0.001,0,0.001,0c3.602,0,6.992-1.412,9.548-3.977
		c2.924-2.934,7.673-2.942,10.606-0.018c2.935,2.924,2.942,7.673,0.019,10.607C305.163,247.783,297.998,250.762,290.381,250.762z"/>
	<path style="fill:#775436;" d="M260.322,271.712h-4.992c-6.889,0-12.492-5.678-12.492-12.656v-15.879c0-4.142,3.357-7.5,7.5-7.5
		s7.5,3.358,7.5,7.5v13.536h2.484c4.143,0,7.5,3.358,7.5,7.5C267.822,268.354,264.465,271.712,260.322,271.712z"/>
	<path style="fill:#775436;" d="M252.922,303.899h-0.001c-11.142,0-21.618-4.358-29.502-12.271
		c-2.923-2.934-2.914-7.683,0.02-10.607c2.934-2.924,7.682-2.916,10.607,0.02c5.048,5.066,11.751,7.857,18.875,7.857
		c7.125,0,13.83-2.79,18.88-7.858c2.922-2.935,7.671-2.943,10.606-0.019c2.934,2.924,2.942,7.672,0.019,10.607
		C274.542,299.541,264.064,303.899,252.922,303.899z"/>
</g>
<path style="fill:#89C947;" d="M166.244,177.512H339.6c1.041,0,2.059,0.107,3.043,0.306c-5.22-51.311-43.394-91.141-89.72-91.141
	c-46.328,0-84.503,39.83-89.723,91.141C164.186,177.619,165.203,177.512,166.244,177.512z"/>
<path style="opacity:0.1;enable-background:new    ;" d="M166.244,177.512h18.309c4.926-47.17,37.696-84.573,79.021-90.117
	c-3.494-0.469-7.047-0.718-10.65-0.718c-46.328,0-84.503,39.83-89.723,91.141C164.186,177.619,165.203,177.512,166.244,177.512z"/>
<path style="fill:#D5E962;" d="M355.054,198.136c0,8.508-6.954,15.469-15.453,15.469H166.244c-8.499,0-15.452-6.961-15.452-15.469
	v-6.55c0-8.507,6.953-15.468,15.452-15.468H339.6c8.499,0,15.453,6.961,15.453,15.468L355.054,198.136L355.054,198.136z"/>
<g style="opacity:0.1;">
	<path d="M172.27,198.136v-6.55c0-8.507,6.954-15.468,15.453-15.468h-21.479c-8.499,0-15.452,6.961-15.452,15.468v6.55
		c0,8.508,6.953,15.469,15.452,15.469h21.479C179.224,213.605,172.27,206.644,172.27,198.136z"/>
</g>
<path style="fill:#FFFFFF;" d="M293.157,438.654c-1.61,0-2.921-1.313-2.921-2.928v-17.908h-17.858c-1.611,0-2.918-1.313-2.918-2.928
	v-15.156c0-1.614,1.307-2.926,2.918-2.926h17.858v-17.912c0-1.613,1.311-2.927,2.921-2.927h15.113c1.609,0,2.918,1.314,2.918,2.927
	v17.912h17.859c1.611,0,2.919,1.312,2.919,2.926v15.156c0,1.614-1.308,2.928-2.919,2.928h-17.859v17.908
	c0,1.615-1.309,2.928-2.918,2.928H293.157z"/>
<g>
</g>
<g>
</g>
<g>
</g>
<g>
</g>
<g>
</g>
<g>
</g>
<g>
</g>
<g>
</g>
<g>
</g>
<g>
</g>
<g>
</g>
<g>
</g>
<g>
</g>
<g>
</g>
<g>
</g>
</svg>
