<?xml version="1.0" ?><!DOCTYPE svg  PUBLIC '-//W3C//DTD SVG 1.1//EN'  'http://www.w3.org/Graphics/SVG/1.1/DTD/svg11.dtd'><svg enable-background="new 0 0 128 128" id="Слой_1" version="1.1" viewBox="0 0 128 128" xml:space="preserve" xmlns="http://www.w3.org/2000/svg" xmlns:xlink="http://www.w3.org/1999/xlink"><g><g opacity="0.5"><circle cx="64" cy="64" fill="#FFFFFF" r="60"/></g><g><circle cx="64" cy="64" fill="#F7F7F7" r="60"/></g><g opacity="0.2"><path d="M64,4c-1.7,0-3.4,0.1-5,0.2c30.8,2.5,55,28.3,55,59.8s-24.2,57.2-55,59.8c1.7,0.1,3.3,0.2,5,0.2    c33.1,0,60-26.9,60-60S97.1,4,64,4z" fill="#62345B"/></g><g><path d="M99.5,52.7H77.3c-1.1,0-2-0.9-2-2V28.5c0-1.1-0.9-2-2-2H54.7c-1.1,0-2,0.9-2,2v22.2c0,1.1-0.9,2-2,2H28.5    c-1.1,0-2,0.9-2,2v18.5c0,1.1,0.9,2,2,2h22.2c1.1,0,2,0.9,2,2v22.2c0,1.1,0.9,2,2,2h18.5c1.1,0,2-0.9,2-2V77.3c0-1.1,0.9-2,2-2    h22.2c1.1,0,2-0.9,2-2V54.7C101.5,53.6,100.6,52.7,99.5,52.7z" fill="#F1657C"/></g><g><path d="M73.2,103H54.8c-1.9,0-3.5-1.6-3.5-3.5V77.2c0-0.3-0.2-0.5-0.5-0.5H28.5c-1.9,0-3.5-1.6-3.5-3.5V54.8    c0-1.9,1.6-3.5,3.5-3.5h22.2c0.3,0,0.5-0.2,0.5-0.5V28.5c0-1.9,1.6-3.5,3.5-3.5h18.5c1.9,0,3.5,1.6,3.5,3.5v22.2    c0,0.3,0.2,0.5,0.5,0.5h22.2c1.9,0,3.5,1.6,3.5,3.5v18.5c0,1.9-1.6,3.5-3.5,3.5H77.2c-0.3,0-0.5,0.2-0.5,0.5v22.2    C76.8,101.4,75.2,103,73.2,103z M28.5,54.2c-0.3,0-0.5,0.2-0.5,0.5v18.5c0,0.3,0.2,0.5,0.5,0.5h22.2c1.9,0,3.5,1.6,3.5,3.5v22.2    c0,0.3,0.2,0.5,0.5,0.5h18.5c0.3,0,0.5-0.2,0.5-0.5V77.2c0-1.9,1.6-3.5,3.5-3.5h22.2c0.3,0,0.5-0.2,0.5-0.5V54.8    c0-0.3-0.2-0.5-0.5-0.5H77.2c-1.9,0-3.5-1.6-3.5-3.5V28.5c0-0.3-0.2-0.5-0.5-0.5H54.8c-0.3,0-0.5,0.2-0.5,0.5v22.2    c0,1.9-1.6,3.5-3.5,3.5H28.5z" fill="#62345B"/></g><g><path d="M64,125.5C30.1,125.5,2.5,97.9,2.5,64S30.1,2.5,64,2.5s61.5,27.6,61.5,61.5S97.9,125.5,64,125.5z M64,5.5    C31.7,5.5,5.5,31.7,5.5,64s26.2,58.5,58.5,58.5s58.5-26.2,58.5-58.5S96.3,5.5,64,5.5z" fill="#62345B"/></g></g></svg>